<?xml version="1.0" standalone="no"?>
<!DOCTYPE svg PUBLIC "-//W3C//DTD SVG 20010904//EN"
 "http://www.w3.org/TR/2001/REC-SVG-20010904/DTD/svg10.dtd">
<svg version="1.0" xmlns="http://www.w3.org/2000/svg"
 width="1768.000000pt" height="295.000000pt" viewBox="0 0 1768.000000 295.000000"
 preserveAspectRatio="xMidYMid meet">

<g transform="translate(0.000000,295.000000) scale(0.100000,-0.100000)"
fill="#000000" stroke="none">
<path d="M1950 2865 c-434 -93 -683 -482 -656 -1024 3 -68 8 -126 10 -128 3
-3 55 -14 118 -24 62 -11 144 -28 183 -38 38 -11 71 -19 72 -17 1 1 -2 19 -7
41 -37 165 -31 372 15 507 102 303 440 428 691 257 55 -37 127 -119 153 -172
26 -54 51 -151 51 -199 0 -115 -54 -240 -138 -320 -114 -109 -240 -150 -457
-151 -77 -1 -173 4 -214 11 -40 7 -75 11 -77 9 -2 -2 7 -52 21 -111 13 -60 27
-139 31 -177 4 -38 13 -74 20 -80 23 -19 306 -23 419 -6 362 56 609 251 716
566 31 91 33 103 33 246 1 169 -11 230 -68 352 -50 104 -104 179 -184 255
-108 102 -244 172 -391 204 -83 17 -256 17 -341 -1z"/>
<path d="M4200 2044 c-236 -62 -429 -261 -486 -499 -24 -101 -22 -277 5 -379
57 -217 226 -407 426 -477 204 -71 432 -30 573 104 l32 31 0 -82 0 -82 110 0
110 0 0 360 0 360 -250 0 -250 0 0 -100 0 -100 140 0 140 0 0 -52 c0 -50 -2
-54 -51 -100 -142 -133 -300 -168 -465 -101 -117 46 -222 176 -253 313 -15 64
-13 196 3 257 32 121 125 242 224 292 133 68 312 37 431 -74 27 -25 54 -59 61
-76 7 -16 16 -28 19 -27 27 11 201 145 201 154 0 7 -20 39 -44 72 -74 100
-185 171 -321 207 -76 19 -279 19 -355 -1z"/>
<path d="M5200 1360 l0 -700 140 0 140 0 0 290 0 290 275 0 275 0 0 110 0 110
-275 0 -275 0 0 180 0 180 330 0 330 0 0 120 0 120 -470 0 -470 0 0 -700z"/>
<path d="M6470 1360 l0 -700 110 0 110 0 0 700 0 700 -110 0 -110 0 0 -700z"/>
<path d="M6920 1360 l0 -700 110 0 110 0 2 491 3 491 389 -491 389 -491 94 0
93 0 0 695 0 695 -110 0 -110 0 0 -490 c0 -269 -3 -490 -7 -490 -5 0 -183 223
-398 494 l-390 495 -87 0 -88 1 0 -700z"/>
<path d="M8350 1360 l0 -700 110 0 110 0 2 492 3 492 393 -492 394 -492 89 0
89 0 0 695 0 695 -110 0 -110 0 -2 -495 -3 -494 -395 499 -395 500 -87 0 -88
0 0 -700z"/>
<path d="M10174 2041 c-97 -28 -191 -86 -275 -171 -130 -131 -209 -322 -209
-505 0 -259 152 -521 366 -632 118 -62 180 -77 309 -76 93 0 122 4 190 27 91
31 170 77 238 136 64 57 152 192 189 292 40 108 50 282 24 400 -57 257 -255
471 -493 532 -83 22 -259 20 -339 -3z m282 -185 c206 -55 344 -257 344 -501
-1 -358 -323 -595 -614 -452 -254 126 -347 489 -190 748 37 61 122 147 172
173 84 43 199 56 288 32z"/>
<path d="M10307 1570 c-121 -38 -176 -200 -110 -322 52 -95 166 -128 258 -74
124 73 129 285 9 368 -43 31 -112 43 -157 28z"/>
<path d="M10990 2057 c0 -1 126 -315 279 -697 l280 -695 94 -3 95 -3 280 701
280 700 -118 0 -117 0 -209 -555 c-180 -479 -210 -551 -220 -532 -6 12 -100
262 -210 554 l-199 533 -117 0 c-65 0 -118 -1 -118 -3z"/>
<path d="M12407 1383 c-147 -373 -270 -688 -274 -700 -5 -23 -5 -23 109 -23
l115 0 68 183 c38 100 73 188 78 195 8 9 69 12 271 10 l261 -3 75 -190 76
-190 117 -3 c64 -1 117 -1 117 1 0 1 -123 315 -273 697 l-272 695 -100 3 -100
2 -268 -677z m478 127 c54 -146 100 -273 103 -282 4 -17 -11 -18 -218 -18
-174 0 -221 3 -217 13 2 6 53 137 112 290 60 153 112 274 115 270 4 -4 52
-127 105 -273z"/>
<path d="M13250 1965 l0 -95 233 -2 232 -3 3 -602 2 -603 110 0 110 0 0 605 0
605 230 0 230 0 0 95 0 95 -575 0 -575 0 0 -95z"/>
<path d="M14510 1360 l0 -700 115 0 115 0 0 700 0 700 -115 0 -115 0 0 -700z"/>
<path d="M15380 2044 c-74 -19 -165 -66 -234 -120 -104 -82 -210 -252 -242
-391 -20 -87 -20 -248 0 -335 47 -205 194 -394 369 -477 105 -50 170 -65 282
-65 112 0 177 15 285 66 160 76 304 257 356 448 28 101 25 283 -5 380 -41 133
-96 226 -191 321 -92 93 -180 145 -295 174 -75 19 -251 19 -325 -1z m282 -194
c157 -48 262 -167 309 -348 51 -199 -4 -398 -147 -531 -76 -71 -147 -102 -254
-108 -122 -8 -232 37 -324 134 -137 143 -177 405 -91 598 94 212 304 318 507
255z"/>
<path d="M16370 1360 l0 -700 110 0 110 0 2 493 3 492 393 -492 393 -493 90 0
89 0 0 695 0 695 -110 0 -110 0 -2 -494 -3 -494 -395 499 -395 499 -87 0 -88
0 0 -700z"/>
<path d="M896 1709 c-349 -45 -603 -229 -720 -523 -45 -113 -58 -196 -53 -336
3 -107 9 -139 36 -220 91 -271 306 -471 579 -541 96 -24 282 -26 385 -3 99 21
258 101 340 169 199 165 298 430 296 795 0 159 -7 194 -39 198 -41 4 -221 42
-282 59 -55 15 -58 17 -72 62 -17 51 -50 208 -61 287 l-6 51 -67 7 c-89 8
-251 6 -336 -5z m424 -371 l55 -13 14 -60 c7 -35 14 -128 14 -225 2 -187 -9
-245 -68 -367 -127 -259 -476 -323 -694 -127 -188 169 -203 454 -33 637 83 88
169 135 302 163 78 16 327 11 410 -8z"/>
<path d="M2274 981 c-92 -24 -180 -94 -225 -183 -34 -65 -38 -194 -9 -270 28
-76 98 -149 175 -184 84 -39 195 -40 277 -2 69 32 136 97 168 163 35 72 39
190 10 267 -46 123 -161 206 -294 213 -39 3 -85 1 -102 -4z"/>
</g>
</svg>
